HIERARCHY
ROOT root
{
	OFFSET	0	13.1	24.9
	CHANNELS 6  Xposition Yposition Zposition Xrotation Yrotation Zrotation
	JOINT spine_1
	{
		OFFSET	0	9.99999	0
		CHANNELS 3  Xrotation Yrotation Zrotation
		JOINT spine_2
		{
			OFFSET	0	112	-10
			CHANNELS 3  Xrotation Yrotation Zrotation
			JOINT spine_3
			{
				OFFSET	0	206.5	19.3
				CHANNELS 3  Xrotation Yrotation Zrotation
				JOINT spine_4
				{
					OFFSET	0	110.4	14.6
					CHANNELS 3  Xrotation Yrotation Zrotation
					JOINT neck_1
					{
						OFFSET	0	71.8	-50.3
						CHANNELS 3  Xrotation Yrotation Zrotation
						JOINT neck_2
						{
							OFFSET	0	86.2	-25.8
							CHANNELS 3  Xrotation Yrotation Zrotation
							JOINT head_ee
							{
								OFFSET	0	179.8	-8.7
								CHANNELS 3  Xrotation Yrotation Zrotation
								End Site
								{
									OFFSET	1	0	0
								}
							}
						}
					}
					JOINT left_clavicle
					{
						OFFSET	-43.2	22.4	-70.8
						CHANNELS 3  Xrotation Yrotation Zrotation
						JOINT left_shoulder
						{
							OFFSET	-93.9	-5.79999	48.7
							CHANNELS 3  Xrotation Yrotation Zrotation
							JOINT left_elbow
							{
								OFFSET	-291.4	-30.8	15.2
								CHANNELS 3  Xrotation Yrotation Zrotation
								JOINT left_lowarm_twist
								{
									OFFSET	-110.7	-3.89999	13.6
									CHANNELS 3  Xrotation Yrotation Zrotation
									JOINT left_hand
									{
										OFFSET	-110.7	-3.89999	13.6
										CHANNELS 3  Xrotation Yrotation Zrotation
										JOINT left_ee
										{
											OFFSET	-80.8	-5.10001	12.1
											CHANNELS 3  Xrotation Yrotation Zrotation
											End Site
											{
												OFFSET	1	0	0
											}
										}
									}
								}
							}
						}
					}
					JOINT right_clavicle
					{
						OFFSET	43.2	22.4	-70.8
						CHANNELS 3  Xrotation Yrotation Zrotation
						JOINT right_shoulder
						{
							OFFSET	93.9	-5.79999	48.7
							CHANNELS 3  Xrotation Yrotation Zrotation
							JOINT right_elbow
							{
								OFFSET	291.4	-30.8	15.2
								CHANNELS 3  Xrotation Yrotation Zrotation
								JOINT right_lowarm_twist
								{
									OFFSET	110.7	-3.89999	13.6
									CHANNELS 3  Xrotation Yrotation Zrotation
									JOINT right_hand
									{
										OFFSET	110.7	-3.89999	13.6
										CHANNELS 3  Xrotation Yrotation Zrotation
										JOINT right_ee
										{
											OFFSET	80.8	-5.10001	12.1
											CHANNELS 3  Xrotation Yrotation Zrotation
											End Site
											{
												OFFSET	1	0	0
											}
										}
									}
								}
							}
						}
					}
				}
			}
		}
	}
	JOINT left_hip
	{
		OFFSET	-82.8	-127.5	0.300001
		CHANNELS 3  Xrotation Yrotation Zrotation
		JOINT left_knee
		{
			OFFSET	-28.2	-396.7	2.2
			CHANNELS 3  Xrotation Yrotation Zrotation
			JOINT left_ankle
			{
				OFFSET	-11.7	-411.3	35.4
				CHANNELS 3  Xrotation Yrotation Zrotation
				JOINT left_toes
				{
					OFFSET	0	-60	-88.6
					CHANNELS 3  Xrotation Yrotation Zrotation
					JOINT left_foot_ee
					{
						OFFSET	-22.5	-16.5	-42.2
						CHANNELS 3  Xrotation Yrotation Zrotation
						End Site
						{
							OFFSET	1	0	0
						}
					}
				}
			}
		}
	}
	JOINT right_hip
	{
		OFFSET	82.8	-127.5	0.300001
		CHANNELS 3  Xrotation Yrotation Zrotation
		JOINT right_knee
		{
			OFFSET	28.2	-396.7	2.2
			CHANNELS 3  Xrotation Yrotation Zrotation
			JOINT right_ankle
			{
				OFFSET	11.7	-411.3	35.4
				CHANNELS 3  Xrotation Yrotation Zrotation
				JOINT right_toes
				{
					OFFSET	0	-60	-88.6
					CHANNELS 3  Xrotation Yrotation Zrotation
					JOINT right_foot_ee
					{
						OFFSET	22.5	-16.5	-42.2
						CHANNELS 3  Xrotation Yrotation Zrotation
						End Site
						{
							OFFSET	1	0	0
						}
					}
				}
			}
		}
	}
}
MOTION
Frames: 7
Frame Time: 0.02
1372.05 701.618 -1475.22 -9.60122730149 45.7086378216 4.24726386456 -0.0590878 0.139728 -0.531836 -0.0589472 0.173287 -0.521867 -0.0605095 0.279609 -0.473491 -0.0607655 0.201322 -0.511707 3.72174 2.9765 4.12698 3.76325 1.59961 4.8299 -0.0 0.0 -0.0 12.0395 -19.3886 24.0667 -0.476482 -40.8634 45.4546 2.08317 -45.895 0.882082 8.00815 0.212554 -1.00004 -3.00934 -25.3391 -31.5356 -0.0 0.0 -0.0 10.402 -20.925 -17.937 -41.0153 20.8499 -51.3888 0.37124 10.4206 -0.0338528 -5.81301 0.240723 -0.702701 0.0736214 1.8603 0.292067 0.0 0.0 0.0 -7.79568 2.91051 2.97639 -10.847 0.292433 1.63649 8.44976 28.4921 -1.28893 34.154 -0.0 -0.0 -0.0 0.0 -0.0 34.3034 -15.7871 7.62048 -10.3313 -0.285585 -1.55765 -8.21305 1.34486 -1.24017 7.54952 -0.0 -0.0 0.0 0.0 0.0 
1364.54852355 702.31 -1493.07423342 -12.1820062257 46.6805055578 5.0888628286 -0.00822334 0.0446395 -0.46163 -0.00810777 0.0739235 -0.457854 -0.00866444 0.168572 -0.432064 -0.00891163 0.0982204 -0.453264 4.36411 3.79502 4.97429 4.4234 2.21784 5.85394 -0.0 0.0 -0.0 12.1727 -19.3156 24.3777 -1.54843 -35.7687 46.1214 2.37522 -49.6316 1.09843 6.90224 0.191555 -0.860336 -3.16333 -25.7915 -32.8397 -0.0 0.0 -0.0 10.5728 -18.8071 -18.6014 -38.4841 19.8754 -50.867 0.450155 12.5711 -0.0495831 -5.23996 0.213833 -0.634539 0.0980813 3.03557 0.62464 0.0 0.0 0.0 -6.829 2.60318 3.84972 -11.0197 0.294569 1.66291 3.22935 27.5448 -0.496533 34.2988 -0.0 -0.0 -0.0 0.0 -0.0 35.6141 -14.5482 8.62202 -10.5689 -0.288828 -1.59396 -8.60991 1.57597 -1.30184 8.85529 -0.0 -0.0 0.0 0.0 0.0 
1364.75361177 702.31 -1493.15902223 -12.0375668545 46.0385357254 4.88927717798 -0.00822334 0.0446395 -0.46163 -0.00810777 0.0739235 -0.457854 -0.00866444 0.168572 -0.432064 -0.00891163 0.0982204 -0.453264 4.36411 3.79502 4.97429 4.4234 2.21784 5.85394 -0.0 0.0 -0.0 12.1727 -19.3156 24.3777 -1.54843 -35.7687 46.1214 2.37522 -49.6316 1.09843 6.90224 0.191555 -0.860336 -3.16333 -25.7915 -32.8397 -0.0 0.0 -0.0 10.5728 -18.8071 -18.6014 -38.4841 19.8754 -50.867 0.450155 12.5711 -0.0495831 -5.23996 0.213833 -0.634539 0.0980813 3.03557 0.62464 0.0 0.0 0.0 -6.829 2.60318 3.84972 -11.0197 0.294569 1.66291 3.22935 27.5448 -0.496533 34.2988 -0.0 -0.0 -0.0 0.0 -0.0 35.6141 -14.5482 8.62202 -10.5689 -0.288828 -1.59396 -8.60991 1.57597 -1.30184 8.85529 -0.0 -0.0 0.0 0.0 0.0 
1364.92524441 702.31 -1493.22787766 -11.9209080545 45.5033235761 4.726474326 -0.00822334 0.0446395 -0.46163 -0.00810777 0.0739235 -0.457854 -0.00866444 0.168572 -0.432064 -0.00891163 0.0982204 -0.453264 4.36411 3.79502 4.97429 4.4234 2.21784 5.85394 -0.0 0.0 -0.0 12.1727 -19.3156 24.3777 -1.54843 -35.7687 46.1214 2.37522 -49.6316 1.09843 6.90224 0.191555 -0.860336 -3.16333 -25.7915 -32.8397 -0.0 0.0 -0.0 10.5728 -18.8071 -18.6014 -38.4841 19.8754 -50.867 0.450155 12.5711 -0.0495831 -5.23996 0.213833 -0.634539 0.0980813 3.03557 0.62464 0.0 0.0 0.0 -6.829 2.60318 3.84972 -11.0197 0.294569 1.66291 3.22935 27.5448 -0.496533 34.2988 -0.0 -0.0 -0.0 0.0 -0.0 35.6141 -14.5482 8.62202 -10.5689 -0.288828 -1.59396 -8.60991 1.57597 -1.30184 8.85529 -0.0 -0.0 0.0 0.0 0.0 
1322.24375078 707.354 -1545.69527299 -11.5576528135 43.74204407 2.79144704568 -0.358008 0.18611 -0.320223 -0.357974 0.206109 -0.307731 -0.3591 0.267795 -0.255863 -0.359121 0.224025 -0.294945 5.27431 3.64506 1.4338 5.30108 4.97841 1.81597 -0.0 0.0 -0.0 11.6486 -16.1655 23.3503 -9.17599 -29.8073 48.2593 2.51627 -51.2532 1.20718 2.90659 0.0933031 -0.359485 -2.53074 -24.1119 -27.5918 -0.0 0.0 -0.0 10.5344 -13.9717 -19.3252 -33.9233 18.8545 -49.0106 0.628322 17.289 -0.095525 -4.26914 0.169842 -0.518473 -0.148427 1.05461 1.43891 0.0 0.0 0.0 -3.38627 2.15404 4.93529 -19.6229 0.299934 2.98166 -9.45716 29.386 1.5062 35.0796 -0.0 -0.0 -0.0 0.0 -0.0 36.6496 -14.2143 9.50121 -18.6345 -0.30939 -2.83029 -3.25262 2.62221 -0.488657 15.8578 -0.0 -0.0 0.0 0.0 0.0 
1323.24391643 707.354 -1546.39157277 -11.4056351159 42.9491190991 2.5699805579 -0.358008 0.18611 -0.320223 -0.357974 0.206109 -0.307731 -0.3591 0.267795 -0.255863 -0.359121 0.224025 -0.294945 5.27431 3.64506 1.4338 5.30108 4.97841 1.81597 -0.0 0.0 -0.0 11.6486 -16.1655 23.3503 -9.17599 -29.8073 48.2593 2.51627 -51.2532 1.20718 2.90659 0.0933031 -0.359485 -2.53074 -24.1119 -27.5918 -0.0 0.0 -0.0 10.5344 -13.9717 -19.3252 -33.9233 18.8545 -49.0106 0.628322 17.289 -0.095525 -4.26914 0.169842 -0.518473 -0.148427 1.05461 1.43891 0.0 0.0 0.0 -3.38627 2.15404 4.93529 -19.6229 0.299934 2.98166 -9.45716 29.386 1.5062 35.0796 -0.0 -0.0 -0.0 0.0 -0.0 36.6496 -14.2143 9.50121 -18.6345 -0.30939 -2.83029 -3.25262 2.62221 -0.488657 15.8578 -0.0 -0.0 0.0 0.0 0.0 
1292.02271623 705.259 -1577.48274738 -10.2051820952 43.0546434334 2.19559569305 -0.445656 0.247401 -0.343487 -0.445631 0.268756 -0.327049 -0.447202 0.333539 -0.260658 -0.447181 0.288187 -0.310063 6.51246 4.18158 -0.584074 6.59467 7.59689 -0.536509 -0.0 0.0 -0.0 11.1902 -11.8107 22.4431 -11.9336 -27.6139 52.27 1.94147 -43.8783 0.782071 0.834836 0.0286658 -0.102768 -2.3457 -24.6766 -26.4649 -0.0 0.0 -0.0 10.4668 -10.7202 -19.646 -30.8235 18.6827 -48.6334 0.709477 19.3643 -0.121047 -2.11867 0.0794513 -0.258864 -0.252363 1.24903 2.21805 0.0 0.0 0.0 -0.477745 1.97306 4.92281 -28.3258 0.104542 4.30163 -11.3936 29.2448 1.81717 36.767 -0.0 -0.0 -0.0 0.0 -0.0 36.5436 -13.2637 10.2671 -26.6035 -0.159103 -4.04294 0.620335 4.42978 0.0929623 20.1084 -0.0 -0.0 0.0 0.0 0.0 
